<?xml version="1.0" encoding="UTF-8"?>
<svg width="41px" height="44px" viewBox="0 0 41 44" version="1.1" xmlns="http://www.w3.org/2000/svg" xmlns:xlink="http://www.w3.org/1999/xlink">
    <!-- Generator: Sketch 42 (36781) - http://www.bohemiancoding.com/sketch -->
    <title>server</title>
    <desc>Created with Sketch.</desc>
    <defs></defs>
    <g id="Page-1" stroke="none" stroke-width="1" fill="none" fill-rule="evenodd">
        <g id="Artboard" transform="translate(-177.000000, -963.000000)">
            <g id="server" transform="translate(172.000000, 959.000000)">
                <g id="svg4874">
                    <g id="layer1" transform="translate(0.432902, 0.249930)">
                        <g id="g4845" transform="translate(24.740129, 25.750070) scale(-1, 1) rotate(-90.000000) translate(-24.740129, -25.750070) translate(-0.759871, 1.250070)">
                            <g id="g4778" transform="translate(25.998557, 24.499995) scale(-1, 1) translate(-25.998557, -24.499995) translate(0.998557, -0.000005)">
                                <g id="g4780" transform="translate(24.975369, 24.500000) scale(-1, 1) translate(-24.975369, -24.500000) translate(0.475369, -0.000000)">
                                    <rect id="rect4782" transform="translate(24.729330, 24.420522) scale(-1, 1) translate(-24.729330, -24.420522) " x="0.486904828" y="0.182898119" width="48.4848505" height="48.4752475"></rect>
                                    <path d="M5.53742524,44.6185518 L5.53742524,4.22251218" id="path4205" stroke="#E95420" stroke-width="2"></path>
                                    <path d="M12.10308,24.4205269 L5.03237255,24.4205269" id="path4207" stroke="#E95420" stroke-width="2.00000024"></path>
                                    <path d="M8.07016545,6.7407594 L8.07016545,7.75106001 L8.07016545,14.8231643 L10.0905545,14.8231643 L10.0905545,8.76037401 L46.4388231,8.76037401 L46.4388231,14.8231643 L48.4592121,14.8231643 L48.4592121,6.7407594 L8.07016545,6.7407594 Z M8.07016545,17.8540661 L8.07016545,25.936471 L10.0905545,25.936471 L10.0905545,17.8540661 L8.07016545,17.8540661 Z M46.4388231,17.8540661 L46.4388231,25.936471 L48.4592121,25.936471 L48.4592121,17.8540661 L46.4388231,17.8540661 Z M8.07016545,28.9673728 L8.07016545,42.1012807 L48.4592121,42.1012807 L48.4592121,28.9673728 L46.4388231,28.9673728 L46.4388231,40.081666 L10.0905545,40.081666 L10.0905545,28.9673728 L8.07016545,28.9673728 Z" id="rect4236" fill="#E95420" fill-rule="nonzero" transform="translate(28.264689, 24.421020) scale(-1, 1) rotate(-90.000000) translate(-28.264689, -24.421020) "></path>
                                    <path d="M33.8202552,44.6185518 L33.8202552,4.22251218" id="path4238" stroke="#E95420" stroke-width="2"></path>
                                    <path d="M22.7091564,44.6185518 L22.7091564,4.22251218" id="path4240" stroke="#E95420" stroke-width="2"></path>
                                    <rect id="rect4242" fill="#E95420" fill-rule="nonzero" transform="translate(39.375801, 12.301724) scale(-1, 1) rotate(-90.000000) translate(-39.375801, -12.301724) " x="36.3466954" y="10.7862732" width="6.05821111" height="3.03090182"></rect>
                                    <rect id="rect4244" fill="#E95420" fill-rule="nonzero" transform="translate(28.264682, 12.301724) scale(-1, 1) rotate(-90.000000) translate(-28.264682, -12.301724) " x="25.2355764" y="10.7862732" width="6.05821111" height="3.03090182"></rect>
                                    <rect id="rect4246" fill="#E95420" fill-rule="nonzero" transform="translate(17.153558, 12.301724) scale(-1, 1) rotate(-90.000000) translate(-17.153558, -12.301724) " x="14.1244524" y="10.7862732" width="6.05821111" height="3.03090182"></rect>
                                    <ellipse id="path4208" fill="#E95420" fill-rule="nonzero" transform="translate(5.537410, 24.420522) scale(-1, 1) rotate(-90.000000) translate(-5.537410, -24.420522) " cx="5.5374101" cy="24.4205219" rx="3.0291048" ry="3.03090203"></ellipse>
                                </g>
                            </g>
                        </g>
                    </g>
                </g>
            </g>
        </g>
    </g>
</svg>